<?xml version="1.0" encoding="UTF-8"?>
<svg width="25px" height="24px" viewBox="0 0 25 24" version="1.1" xmlns="http://www.w3.org/2000/svg" xmlns:xlink="http://www.w3.org/1999/xlink">
    <!-- Generator: Sketch 53.1 (72631) - https://sketchapp.com -->
    <title>Icons/linkedin</title>
    <desc>Created with Sketch.</desc>
    <g id="Page-1" stroke="none" stroke-width="1" fill="none" fill-rule="evenodd">
        <g id="Landing-home" transform="translate(-176.000000, -3185.000000)" fill="#F5A623" stroke="#F5A623">
            <g id="Group-19" transform="translate(176.000000, 3185.000000)">
                <g id="Icons/linkedin">
                    <g id="linkedin" transform="translate(1.000000, 1.000000)">
                        <path d="M3.03605346,0 C2.21146099,0 1.46180352,0.299873969 0.899571395,0.862110207 C0.299871773,1.46181422 0,2.21143325 0,2.99856399 C0,3.82316249 0.337339273,4.57282545 0.899571395,5.13506169 C1.46180352,5.69729793 2.24892849,6.03463967 2.99858596,5.9971719 C2.99858596,5.9971719 3.03605346,5.9971719 3.07356488,5.9971719 C3.82322236,5.9971719 4.5353684,5.69729793 5.09760052,5.13506169 C5.65983265,4.57282545 5.99717192,3.82316249 5.99717192,2.99856399 C6.03463942,2.21143325 5.69730015,1.46177029 5.13506802,0.899534056 C4.5728359,0.299830044 3.82317843,0 3.03605346,0 Z M4.5728359,4.61033715 C4.1605177,5.02265837 3.59828558,5.28502064 2.99858596,5.24755286 C2.43635384,5.24755286 1.83665422,5.02265837 1.42433602,4.61033715 C0.97455032,4.19801594 0.749657471,3.59831192 0.749657471,2.99860791 C0.749657471,2.3989039 0.97455032,1.83666766 1.42433602,1.38687867 C1.83665422,0.974557454 2.39888634,0.749662959 3.03605346,0.749662959 C3.59828558,0.749662959 4.1605177,0.974557454 4.5728359,1.38687867 C5.0226216,1.83666766 5.24751445,2.3989039 5.24751445,2.99860791 C5.24751445,3.59831192 5.0226216,4.19801594 4.5728359,4.61033715 Z" id="Shape" stroke-width="0.5" fill-rule="nonzero"></path>
                        <path d="M4.7142893,7 L1.24287042,7 C0.557174785,7 0,7.47559501 0,8.09755993 L0,20.9024401 C0,21.4877911 0.600015067,22 1.2857107,22 L4.7142893,22 C5.39998493,22 6,21.4877911 6,20.9390111 L6,8.09755993 C6,7.51216605 5.39998493,7 4.7142893,7 Z M5.14284279,20.9390111 C5.14284279,21.1219521 4.92854094,21.2682791 4.7142893,21.2682791 L1.2857107,21.2682791 C1.07140884,21.2682791 0.857157207,21.0853381 0.857157207,20.9024401 L0.857157207,8.09755993 C0.857157207,7.91461898 1.02856856,7.73172091 1.24287042,7.73172091 L4.7142893,7.73172091 C4.92859116,7.73172091 5.14284279,7.91466186 5.14284279,8.09755993 L5.14284279,20.9390111 Z" id="Shape" stroke-width="0.5" fill-rule="nonzero"></path>
                        <path d="M17.7630542,6 L16.9775211,6 C15.5186739,6 14.134654,6.64763393 13.2369019,7.67620536 L13.2369019,7.14285714 C13.2369019,6.76191964 12.8628532,6.3809375 12.4887606,6.3809375 L8.74814137,6.3809375 C8.41148433,6.3809375 8,6.68571429 8,7.10473214 L8,21.3142411 C8,21.7333036 8.41148433,21.9999554 8.74814137,21.9999554 L12.8628532,21.9999554 C13.1995102,21.9999554 13.6109945,21.7333036 13.6109945,21.3142411 L13.6109945,13.0856696 C13.6109945,11.8285268 14.5087467,10.8380357 15.6683285,10.8380357 C16.2668153,10.8380357 16.8279104,11.0666071 17.2393947,11.4856696 C17.6134435,11.8285268 17.7630981,12.361875 17.7630981,13.0475893 L17.7630981,21.2380804 C17.7630981,21.6190179 18.1371468,22 18.5112394,22 L22.2518586,22 C22.6259074,22 23,21.6190625 23,21.2380804 L23,11.4095089 C22.9999562,8.36191964 20.7181842,6 17.7630542,6 Z M22.2518148,21.2 L22.2144231,21.2380804 L18.5485873,21.2380804 L18.5111956,13.0476339 C18.5111956,12.1333482 18.2867576,11.4476339 17.8004898,10.9524107 C17.2393947,10.3809821 16.4912533,10.0762054 15.7057202,10.0762054 C14.134654,10.1142857 12.9002449,11.4095536 12.9002449,13.0857143 L12.9002449,21.2380804 L8.7855331,21.2380804 L8.7855331,7.14285714 L12.4887606,7.14285714 L12.5261523,7.1809375 L12.5261523,9.5809375 L13.5361234,8.55236607 L13.5735151,8.51428571 C14.3216565,7.44763393 15.6308491,6.76191964 17.0149129,6.76191964 L17.800446,6.76191964 C20.306656,6.76191964 22.2518148,8.8190625 22.2518148,11.4095536 L22.2518148,21.2 L22.2518148,21.2 Z" id="Shape" stroke-width="0.5" fill-rule="nonzero"></path>
                    </g>
                </g>
            </g>
        </g>
    </g>
</svg>