<?xml version="1.0" encoding="UTF-8"?>
<svg width="42px" height="42px" viewBox="0 0 42 42" version="1.1" xmlns="http://www.w3.org/2000/svg" xmlns:xlink="http://www.w3.org/1999/xlink">
    <!-- Generator: sketchtool 53.1 (72631) - https://sketchapp.com -->
    <title>2FC66384-9BB6-49DE-8C22-698C27BCA5FF</title>
    <desc>Created with sketchtool.</desc>
    <g id="Symbols" stroke="none" stroke-width="1" fill="none" fill-rule="evenodd">
        <g id="Icons/quotes" fill="#080A3A" fill-rule="nonzero">
            <g id="chevron-up" transform="translate(21.000000, 21.500000) scale(-1, 1) translate(-21.000000, -21.500000) translate(0.000000, 8.000000)">
                <g id="noun_Quote_89670_000000">
                    <path d="M0.553846154,10.1017241 C1.15384615,14.1517241 4.56923077,17.037931 8.44615385,17.2241379 C7.47692308,20.8551724 5.12307692,22.2982759 2.26153846,23.1362069 C1.98461538,23.2293103 2.03076923,23.5086207 2.03076923,23.5086207 L2.49230769,26.3948276 C2.49230769,26.3948276 2.53846154,26.6275862 2.90769231,26.5810345 C12.7846154,25.4637931 19.4769231,17.8758621 18.2307692,8.65862069 C17.0769231,2.28103448 12.1384615,-0.186206897 7.56923077,0.465517241 C3,1.21034483 -0.138461538,5.49310345 0.553846154,10.1017241 L0.553846154,10.1017241 Z M32.0769231,17.2241379 C31.1538462,20.8551724 28.7076923,22.2982759 25.8923077,23.1362069 C25.6153846,23.2293103 25.6615385,23.5086207 25.6615385,23.5086207 L26.0769231,26.3948276 C26.0769231,26.3948276 26.1230769,26.6275862 26.4923077,26.5810345 C36.4153846,25.4637931 43.0153846,17.8758621 41.8615385,8.65862069 C40.6615385,2.28103448 35.6769231,-0.186206897 31.1538462,0.465517241 C26.5846154,1.21034483 23.4461538,5.49310345 24.1846154,10.1017241 C24.7846154,14.1982759 28.1538462,17.0844828 32.0769231,17.2241379 Z" id="Shape"></path>
                </g>
            </g>
        </g>
    </g>
</svg>