<svg xmlns="http://www.w3.org/2000/svg" width="25" height="24" viewBox="0 0 25 24">
    <path fill="none" fill-rule="evenodd" stroke="#F7A602" stroke-linecap="round" stroke-linejoin="round" stroke-width="1.5" d="M10 20c-5 1.5-5-2.5-7-3m14 6v-3.87a3.37 3.37 0 0 0-.94-2.61c3.14-.35 6.44-1.54 6.44-7A5.44 5.44 0 0 0 21 5.77 5.07 5.07 0 0 0 20.91 2S19.73 1.65 17 3.48a13.38 13.38 0 0 0-7 0C7.27 1.65 6.09 2 6.09 2A5.07 5.07 0 0 0 6 5.77a5.44 5.44 0 0 0-1.5 3.78c0 5.42 3.3 6.61 6.44 7a3.37 3.37 0 0 0-.94 2.58V23"/>
</svg>
