<svg xmlns="http://www.w3.org/2000/svg" width="25" height="24" viewBox="0 0 25 24">
    <g fill="#F5A623" fill-rule="nonzero" stroke="#F5A623" stroke-width=".5">
        <path d="M4.036 1c-.825 0-1.574.3-2.136.862-.6.6-.9 1.35-.9 2.137 0 .824.337 1.574.9 2.136.562.562 1.349.9 2.099.862h.075c.75 0 1.461-.3 2.024-.862.562-.562.9-1.312.9-2.136.037-.788-.3-1.537-.863-2.1C5.573 1.3 4.823 1 4.036 1zm1.537 4.61c-.412.413-.975.675-1.574.638a2.275 2.275 0 0 1-1.575-.638C1.974 5.198 1.75 4.598 1.75 4c0-.6.225-1.162.674-1.612.413-.412.975-.637 1.612-.637.562 0 1.125.225 1.537.637.45.45.675 1.012.675 1.612 0 .6-.225 1.199-.675 1.611zM5.714 8H2.243C1.557 8 1 8.476 1 9.098v12.804C1 22.488 1.6 23 2.286 23h3.428C6.4 23 7 22.488 7 21.939V9.098C7 8.512 6.4 8 5.714 8zm.429 13.939c0 .183-.214.33-.429.33H2.286c-.215 0-.429-.184-.429-.367V9.098c0-.183.172-.366.386-.366h3.471c.215 0 .429.183.429.366v12.841zM18.763 7h-.785c-1.46 0-2.843.648-3.741 1.676v-.533c0-.381-.374-.762-.748-.762h-3.74c-.338 0-.749.305-.749.724v14.21c0 .418.411.685.748.685h4.115c.337 0 .748-.267.748-.686v-8.228c0-1.257.898-2.248 2.057-2.248.599 0 1.16.229 1.571.648.374.343.524.876.524 1.562v8.19c0 .381.374.762.748.762h3.74c.375 0 .749-.38.749-.762V12.41C24 9.362 21.718 7 18.763 7zm4.489 15.2l-.038.038H19.55l-.038-8.19c0-.915-.224-1.6-.71-2.096a2.915 2.915 0 0 0-2.095-.876c-1.571.038-2.806 1.334-2.806 3.01v8.152H9.786V8.143h3.703l.037.038v2.4l1.01-1.029.038-.038c.748-1.066 2.057-1.752 3.44-1.752h.786c2.507 0 4.452 2.057 4.452 4.648v9.79z"/>
    </g>
</svg>
