<svg xmlns="http://www.w3.org/2000/svg" width="42" height="42" viewBox="0 0 42 42">
    <path fill="#080A3A" fill-rule="nonzero" d="M41.446 18.102c-.6 4.05-4.015 6.936-7.892 7.122.97 3.631 3.323 5.074 6.184 5.912.277.093.231.373.231.373l-.461 2.886s-.046.233-.416.186c-9.877-1.117-16.569-8.705-15.323-17.922 1.154-6.378 6.093-8.845 10.662-8.193 4.569.744 7.707 5.027 7.015 9.636zM9.923 25.224c.923 3.631 3.37 5.074 6.185 5.912.277.093.23.373.23.373l-.415 2.886s-.046.233-.415.186C5.585 33.464-1.015 25.876.138 16.659c1.2-6.378 6.185-8.845 10.708-8.193 4.57.744 7.708 5.027 6.97 9.636-.6 4.096-3.97 6.982-7.893 7.122z"/>
</svg>
